<svg width="475" height="191" fill="none" xmlns="http://www.w3.org/2000/svg"><path d="M14.65 10.459v2.21H10.3v12.25H7.61v-12.25H3.24v-2.21h11.41zm-.037 14.46v-10.26h1.45c.253 0 .43.046.53.14.1.093.167.253.2.48l.15 1.24c.367-.633.797-1.133 1.29-1.5a2.715 2.715 0 011.66-.55c.507 0 .927.117 1.26.35l-.32 1.85c-.02.12-.063.206-.13.26a.463.463 0 01-.27.07c-.1 0-.237-.023-.41-.07a2.748 2.748 0 00-.69-.07c-.513 0-.953.143-1.32.43-.367.28-.677.693-.93 1.24v6.39h-2.47zm10.424-10.26v6.52c0 .627.143 1.113.43 1.46.293.34.73.51 1.31.51.427 0 .827-.094 1.2-.28a4.296 4.296 0 001.06-.79v-7.42h2.47v10.26h-1.51c-.32 0-.53-.15-.63-.45l-.17-.82c-.213.213-.433.41-.66.59-.227.173-.47.323-.73.45-.253.12-.53.213-.83.28-.293.073-.61.11-.95.11-.56 0-1.057-.094-1.49-.28a3.036 3.036 0 01-1.08-.81 3.596 3.596 0 01-.67-1.23 5.39 5.39 0 01-.22-1.58v-6.52h2.47zm15.197 2a.712.712 0 01-.21.23.58.58 0 01-.28.06.913.913 0 01-.39-.1c-.133-.067-.29-.14-.47-.22a3.913 3.913 0 00-.62-.23 2.893 2.893 0 00-.81-.1c-.486 0-.87.103-1.15.31a.962.962 0 00-.42.81.8.8 0 00.21.56c.147.146.337.277.57.39.24.113.51.216.81.31.3.087.607.183.92.29.314.107.62.23.92.37.3.133.567.306.8.52.24.206.43.456.57.75.147.293.22.646.22 1.06 0 .493-.09.95-.27 1.37-.18.413-.443.773-.79 1.08-.346.3-.776.537-1.29.71-.506.166-1.09.25-1.75.25-.353 0-.7-.034-1.04-.1a5.647 5.647 0 01-1.83-.66c-.26-.154-.49-.32-.69-.5l.57-.94c.074-.114.16-.2.26-.26s.227-.09.38-.09c.154 0 .297.043.43.13.14.087.3.18.48.28.18.1.39.193.63.28.247.086.557.13.93.13.294 0 .544-.034.75-.1.214-.073.387-.167.52-.28a.978.978 0 00.3-.39c.067-.154.1-.31.1-.47a.819.819 0 00-.22-.59 1.804 1.804 0 00-.57-.4 4.927 4.927 0 00-.81-.3c-.3-.093-.61-.194-.93-.3a9.982 9.982 0 01-.93-.37c-.3-.147-.57-.33-.81-.55a2.57 2.57 0 01-.57-.81c-.14-.32-.21-.707-.21-1.16 0-.42.084-.82.25-1.2.167-.38.41-.71.73-.99.327-.287.73-.514 1.21-.68.487-.174 1.047-.26 1.68-.26.707 0 1.35.117 1.93.35.58.233 1.064.54 1.45.92l-.56.89zm6.01 8.42c-.886 0-1.57-.25-2.05-.75-.48-.507-.72-1.204-.72-2.09v-5.73h-1.04a.518.518 0 01-.35-.13c-.093-.087-.14-.217-.14-.39v-.98l1.65-.27.52-2.8a.504.504 0 01.18-.31c.1-.073.224-.11.37-.11h1.28v3.23h2.7v1.76h-2.7v5.56c0 .32.08.57.24.75.16.18.374.27.64.27.154 0 .28-.017.38-.05.107-.04.197-.08.27-.12.08-.04.15-.077.21-.11.06-.04.12-.06.18-.06.074 0 .134.02.18.06a.708.708 0 01.15.16l.74 1.2c-.36.3-.773.526-1.24.68-.466.153-.95.23-1.45.23zm8.605-10.58c.647 0 1.24.103 1.78.31a3.87 3.87 0 011.41.91c.393.393.7.88.92 1.46.22.573.33 1.23.33 1.97 0 .186-.01.343-.03.47a.678.678 0 01-.09.29.373.373 0 01-.17.15.83.83 0 01-.28.04h-6.34c.073 1.053.357 1.826.85 2.32.493.493 1.147.74 1.96.74.4 0 .743-.047 1.03-.14.293-.093.547-.197.76-.31.22-.113.41-.217.57-.31a.983.983 0 01.48-.14c.1 0 .187.02.26.06.073.04.137.097.19.17l.72.9c-.273.32-.58.59-.92.81-.34.213-.697.386-1.07.52a5.933 5.933 0 01-1.13.27c-.38.053-.75.08-1.11.08a5.549 5.549 0 01-1.99-.35 4.543 4.543 0 01-1.6-1.05 4.987 4.987 0 01-1.07-1.72c-.26-.687-.39-1.48-.39-2.38 0-.7.113-1.357.34-1.97.227-.62.55-1.157.97-1.61.427-.46.943-.824 1.55-1.09.613-.267 1.303-.4 2.07-.4zm.05 1.77c-.72 0-1.283.203-1.69.61-.407.406-.667.983-.78 1.73h4.64c0-.32-.043-.62-.13-.9a2.084 2.084 0 00-.4-.75 1.844 1.844 0 00-.68-.5 2.265 2.265 0 00-.96-.19zm13.614 8.65c-.32 0-.53-.15-.63-.45l-.2-.99c-.214.24-.437.457-.67.65-.234.193-.487.36-.76.5-.267.14-.557.246-.87.32-.307.08-.64.12-1 .12-.56 0-1.074-.117-1.54-.35a3.496 3.496 0 01-1.21-1.01c-.334-.447-.594-.997-.78-1.65-.18-.654-.27-1.4-.27-2.24 0-.76.103-1.467.31-2.12.206-.654.503-1.22.89-1.7.386-.48.85-.854 1.39-1.12.54-.274 1.146-.41 1.82-.41.573 0 1.063.093 1.47.28.406.18.77.423 1.09.73v-5.42h2.47v14.86h-1.51zm-3.29-1.81c.513 0 .95-.107 1.31-.32.36-.213.7-.517 1.02-.91v-4.6c-.28-.34-.587-.58-.92-.72-.327-.14-.68-.21-1.06-.21-.374 0-.714.07-1.02.21-.3.14-.557.353-.77.64-.207.28-.367.64-.48 1.08-.114.433-.17.947-.17 1.54 0 .6.046 1.11.14 1.53.1.413.24.753.42 1.02.18.26.4.45.66.57.26.113.55.17.87.17zm14.893-8.63c.44 0 .853.046 1.24.14.387.087.74.216 1.06.39h2.95v.92a.51.51 0 01-.12.36c-.08.086-.217.146-.41.18l-.92.17c.067.173.117.357.15.55.04.193.06.396.06.61a3.017 3.017 0 01-1.15 2.42c-.353.287-.777.51-1.27.67a5.265 5.265 0 01-1.59.23c-.387 0-.763-.037-1.13-.11-.32.193-.48.41-.48.65 0 .207.093.36.28.46.193.093.443.16.75.2.313.04.667.067 1.06.08.393.006.797.026 1.21.06.413.033.817.093 1.21.18.393.08.743.21 1.05.39.313.18.563.427.75.74.193.307.29.703.29 1.19 0 .453-.113.893-.34 1.32-.22.427-.543.806-.97 1.14-.42.333-.937.6-1.55.8-.613.206-1.313.31-2.1.31-.78 0-1.457-.077-2.03-.23-.573-.147-1.05-.347-1.43-.6-.373-.247-.653-.534-.84-.86a2.027 2.027 0 01-.28-1.02c0-.48.147-.883.44-1.21.293-.327.7-.587 1.22-.78a1.7 1.7 0 01-.61-.56c-.153-.233-.23-.537-.23-.91 0-.154.027-.31.08-.47a1.96 1.96 0 01.24-.49c.113-.16.253-.31.42-.45.167-.147.363-.277.59-.39-.52-.28-.93-.654-1.23-1.12-.293-.467-.44-1.014-.44-1.64 0-.507.1-.963.3-1.37.207-.413.49-.763.85-1.05a3.891 3.891 0 011.29-.67c.5-.153 1.043-.23 1.63-.23zm2.71 10.9c0-.2-.06-.364-.18-.49a1.143 1.143 0 00-.49-.29 3.402 3.402 0 00-.73-.16 11.282 11.282 0 00-.88-.07c-.307-.02-.627-.037-.96-.05-.327-.02-.643-.05-.95-.09-.28.153-.507.337-.68.55-.167.206-.25.447-.25.72 0 .18.043.347.13.5.093.16.237.297.43.41.2.113.457.2.77.26.313.066.697.1 1.15.1.46 0 .857-.037 1.19-.11a2.61 2.61 0 00.82-.29c.22-.12.38-.267.48-.44.1-.167.15-.35.15-.55zm-2.71-5.84c.307 0 .573-.04.8-.12.227-.087.413-.204.56-.35.153-.147.267-.323.34-.53.08-.207.12-.434.12-.68 0-.507-.153-.907-.46-1.2-.3-.3-.753-.45-1.36-.45-.607 0-1.063.15-1.37.45-.3.293-.45.693-.45 1.2 0 .24.037.463.11.67.08.206.193.387.34.54.153.146.343.263.57.35.233.08.5.12.8.12zm6.802 5.38v-10.26h1.45c.253 0 .43.046.53.14.1.093.166.253.2.48l.15 1.24c.366-.633.796-1.133 1.29-1.5a2.715 2.715 0 011.66-.55c.506 0 .926.117 1.26.35l-.32 1.85c-.02.12-.064.206-.13.26a.463.463 0 01-.27.07c-.1 0-.237-.023-.41-.07a2.748 2.748 0 00-.69-.07c-.514 0-.954.143-1.32.43-.367.28-.677.693-.93 1.24v6.39h-2.47zm12.544-10.42c.766 0 1.46.123 2.08.37.626.247 1.16.597 1.6 1.05.44.453.78 1.006 1.02 1.66.24.653.36 1.383.36 2.19 0 .813-.12 1.547-.36 2.2a4.75 4.75 0 01-1.02 1.67c-.44.46-.974.813-1.6 1.06-.62.246-1.314.37-2.08.37-.767 0-1.464-.123-2.09-.37a4.52 4.52 0 01-1.61-1.06 4.87 4.87 0 01-1.03-1.67c-.24-.654-.36-1.387-.36-2.2 0-.807.12-1.537.36-2.19a4.765 4.765 0 011.03-1.66 4.589 4.589 0 011.61-1.05c.626-.247 1.323-.37 2.09-.37zm0 8.67c.853 0 1.483-.287 1.89-.86.413-.574.62-1.414.62-2.52 0-1.107-.207-1.95-.62-2.53-.407-.58-1.037-.87-1.89-.87-.867 0-1.507.293-1.92.88-.414.58-.62 1.42-.62 2.52s.206 1.94.62 2.52c.413.573 1.053.86 1.92.86zm5.737-8.51h1.96c.187 0 .343.043.47.13a.555.555 0 01.24.33l1.47 5.48c.08.3.143.593.19.88.053.287.103.573.15.86.073-.287.15-.573.23-.86.087-.287.177-.58.27-.88l1.7-5.5a.62.62 0 01.24-.33c.12-.087.26-.13.42-.13h1.09c.18 0 .33.043.45.13.12.086.2.197.24.33l1.68 5.6c.087.286.163.566.23.84.073.266.143.537.21.81.047-.287.097-.573.15-.86.06-.287.133-.584.22-.89l1.52-5.48a.555.555 0 01.24-.33.76.76 0 01.44-.13h1.87l-3.25 10.26h-1.99c-.213 0-.367-.147-.46-.44l-1.85-5.93c-.06-.194-.117-.387-.17-.58a9.743 9.743 0 01-.12-.59 11.514 11.514 0 01-.29 1.19l-1.87 5.91c-.093.293-.273.44-.54.44h-1.89l-3.25-10.26zm20.44 10.42c-.886 0-1.57-.25-2.05-.75-.48-.507-.72-1.204-.72-2.09v-5.73h-1.04a.518.518 0 01-.35-.13c-.093-.087-.14-.217-.14-.39v-.98l1.65-.27.52-2.8a.507.507 0 01.18-.31.61.61 0 01.37-.11h1.28v3.23h2.7v1.76h-2.7v5.56c0 .32.08.57.24.75.16.18.374.27.64.27.154 0 .28-.017.38-.05.107-.04.197-.08.27-.12.08-.04.15-.077.21-.11.06-.04.12-.06.18-.06.074 0 .134.02.18.06a.695.695 0 01.15.16l.74 1.2c-.36.3-.773.526-1.24.68a4.61 4.61 0 01-1.45.23zm4.365-.16v-14.86h2.47v5.71c.4-.38.84-.687 1.32-.92.48-.233 1.043-.35 1.69-.35.56 0 1.056.096 1.49.29.433.187.793.453 1.08.8.293.34.513.75.66 1.23.153.473.23.997.23 1.57v6.53h-2.47v-6.53c0-.627-.147-1.11-.44-1.45-.287-.347-.72-.52-1.3-.52a2.57 2.57 0 00-1.2.29 4.285 4.285 0 00-1.06.79v7.42h-2.47zm15.234 3.35v-13.61h1.51c.16 0 .297.036.41.11a.514.514 0 01.22.34l.2.95a5.209 5.209 0 011.42-1.15c.54-.293 1.17-.44 1.89-.44.56 0 1.07.117 1.53.35.467.233.867.573 1.2 1.02.34.44.6.987.78 1.64.187.646.28 1.39.28 2.23 0 .767-.103 1.477-.31 2.13a5.158 5.158 0 01-.89 1.7c-.38.48-.843.856-1.39 1.13-.54.267-1.147.4-1.82.4-.58 0-1.073-.087-1.48-.26-.4-.18-.76-.427-1.08-.74v4.2h-2.47zm4.8-11.85c-.513 0-.953.11-1.32.33-.36.213-.697.517-1.01.91v4.6c.28.346.583.59.91.73.333.133.69.2 1.07.2.373 0 .71-.07 1.01-.21.307-.14.563-.354.77-.64.213-.287.377-.647.49-1.08.113-.44.17-.957.17-1.55 0-.6-.05-1.107-.15-1.52-.093-.42-.23-.76-.41-1.02-.18-.26-.4-.45-.66-.57a2.007 2.007 0 00-.87-.18zm14.549 8.5h-1.11c-.234 0-.417-.034-.55-.1-.134-.073-.234-.217-.3-.43l-.22-.73c-.26.233-.517.44-.77.62a4.71 4.71 0 01-.77.44c-.267.12-.55.21-.85.27-.3.06-.634.09-1 .09-.434 0-.834-.057-1.2-.17a2.687 2.687 0 01-.95-.53 2.404 2.404 0 01-.61-.87c-.147-.347-.22-.75-.22-1.21 0-.387.1-.767.3-1.14.206-.38.546-.72 1.02-1.02.473-.307 1.103-.56 1.89-.76.786-.2 1.763-.314 2.93-.34v-.6c0-.687-.147-1.194-.44-1.52-.287-.334-.707-.5-1.26-.5-.4 0-.734.046-1 .14-.267.093-.5.2-.7.32-.194.113-.374.216-.54.31-.167.093-.35.14-.55.14a.714.714 0 01-.43-.13 1.018 1.018 0 01-.29-.32l-.45-.79c1.18-1.08 2.603-1.62 4.27-1.62.6 0 1.133.1 1.6.3.473.193.873.466 1.2.82.326.346.573.763.74 1.25.173.487.26 1.02.26 1.6v6.48zm-4.8-1.54c.253 0 .486-.024.7-.07.213-.047.413-.117.6-.21.193-.093.376-.207.55-.34.18-.14.36-.303.54-.49v-1.73c-.72.033-1.324.096-1.81.19-.48.087-.867.2-1.16.34-.294.14-.504.303-.63.49-.12.186-.18.39-.18.61 0 .433.126.743.38.93.26.186.596.28 1.01.28zm7.228 1.54v-10.26h1.45c.254 0 .43.046.53.14.1.093.167.253.2.48l.15 1.24c.367-.633.797-1.133 1.29-1.5a2.717 2.717 0 011.66-.55c.507 0 .927.117 1.26.35l-.32 1.85c-.02.12-.063.206-.13.26a.46.46 0 01-.27.07c-.1 0-.236-.023-.41-.07a2.744 2.744 0 00-.69-.07c-.513 0-.953.143-1.32.43-.366.28-.676.693-.93 1.24v6.39h-2.47zm11.534.16c-.886 0-1.57-.25-2.05-.75-.48-.507-.72-1.204-.72-2.09v-5.73h-1.04a.518.518 0 01-.35-.13c-.093-.087-.14-.217-.14-.39v-.98l1.65-.27.52-2.8a.507.507 0 01.18-.31.61.61 0 01.37-.11h1.28v3.23h2.7v1.76h-2.7v5.56c0 .32.08.57.24.75.16.18.374.27.64.27.154 0 .28-.017.38-.05.107-.04.197-.08.27-.12.08-.04.15-.077.21-.11.06-.04.12-.06.18-.06.074 0 .134.02.18.06a.695.695 0 01.15.16l.74 1.2c-.36.3-.773.526-1.24.68a4.61 4.61 0 01-1.45.23zm4.365-.16v-10.26h1.51c.32 0 .53.15.63.45l.17.81a4.845 4.845 0 011.38-1.03c.26-.127.536-.224.83-.29.293-.067.613-.1.96-.1.56 0 1.056.096 1.49.29.433.187.793.453 1.08.8.293.34.513.75.66 1.23.153.473.23.997.23 1.57v6.53h-2.47v-6.53c0-.627-.147-1.11-.44-1.45-.287-.347-.72-.52-1.3-.52a2.57 2.57 0 00-1.2.29 4.285 4.285 0 00-1.06.79v7.42h-2.47zm15.607-10.42c.647 0 1.24.103 1.78.31.547.207 1.017.51 1.41.91.393.393.7.88.92 1.46.22.573.33 1.23.33 1.97 0 .186-.01.343-.03.47a.668.668 0 01-.09.29.374.374 0 01-.17.15.83.83 0 01-.28.04h-6.34c.073 1.053.357 1.826.85 2.32.493.493 1.147.74 1.96.74.4 0 .743-.047 1.03-.14.293-.093.547-.197.76-.31.22-.113.41-.217.57-.31a.986.986 0 01.48-.14c.1 0 .187.02.26.06.073.04.137.097.19.17l.72.9c-.273.32-.58.59-.92.81-.34.213-.697.386-1.07.52a5.931 5.931 0 01-1.13.27c-.38.053-.75.08-1.11.08a5.55 5.55 0 01-1.99-.35 4.544 4.544 0 01-1.6-1.05 4.993 4.993 0 01-1.07-1.72c-.26-.687-.39-1.48-.39-2.38 0-.7.113-1.357.34-1.97.227-.62.55-1.157.97-1.61.427-.46.943-.824 1.55-1.09.613-.267 1.303-.4 2.07-.4zm.05 1.77c-.72 0-1.283.203-1.69.61-.407.406-.667.983-.78 1.73h4.64c0-.32-.043-.62-.13-.9a2.088 2.088 0 00-.4-.75 1.847 1.847 0 00-.68-.5 2.262 2.262 0 00-.96-.19zm6.394 8.65v-10.26h1.45c.253 0 .43.046.53.14.1.093.166.253.2.48l.15 1.24c.366-.633.796-1.133 1.29-1.5a2.713 2.713 0 011.66-.55c.506 0 .926.117 1.26.35l-.32 1.85c-.02.12-.064.206-.13.26a.464.464 0 01-.27.07c-.1 0-.237-.023-.41-.07a2.754 2.754 0 00-.69-.07c-.514 0-.954.143-1.32.43-.367.28-.677.693-.93 1.24v6.39h-2.47zm12.471 0v-8.4l-.89-.14a.976.976 0 01-.47-.2.529.529 0 01-.17-.42v-1.01h1.53v-.76c0-.587.086-1.114.26-1.58.18-.467.433-.864.76-1.19a3.34 3.34 0 011.21-.75 4.626 4.626 0 011.6-.26c.473 0 .913.063 1.32.19l-.05 1.24c-.014.193-.104.313-.27.36a2.16 2.16 0 01-.58.07c-.294 0-.557.033-.79.1-.227.06-.42.17-.58.33-.16.153-.284.36-.37.62-.08.253-.12.57-.12.95v.68h2.67v1.76h-2.59v8.41h-2.47zm10.952-10.42c.766 0 1.46.123 2.08.37.626.247 1.16.597 1.6 1.05.44.453.78 1.006 1.02 1.66.24.653.36 1.383.36 2.19 0 .813-.12 1.547-.36 2.2a4.75 4.75 0 01-1.02 1.67c-.44.46-.974.813-1.6 1.06-.62.246-1.314.37-2.08.37-.767 0-1.464-.123-2.09-.37a4.51 4.51 0 01-1.61-1.06 4.86 4.86 0 01-1.03-1.67c-.24-.654-.36-1.387-.36-2.2 0-.807.12-1.537.36-2.19a4.755 4.755 0 011.03-1.66 4.579 4.579 0 011.61-1.05c.626-.247 1.323-.37 2.09-.37zm0 8.67c.853 0 1.483-.287 1.89-.86.413-.574.62-1.414.62-2.52 0-1.107-.207-1.95-.62-2.53-.407-.58-1.037-.87-1.89-.87-.867 0-1.507.293-1.92.88-.414.58-.62 1.42-.62 2.52s.206 1.94.62 2.52c.413.573 1.053.86 1.92.86zm6.987 1.75v-10.26h1.45c.253 0 .43.046.53.14.1.093.166.253.2.48l.15 1.24c.366-.633.796-1.133 1.29-1.5a2.713 2.713 0 011.66-.55c.506 0 .926.117 1.26.35l-.32 1.85c-.02.12-.064.206-.13.26a.464.464 0 01-.27.07c-.1 0-.237-.023-.41-.07a2.754 2.754 0 00-.69-.07c-.514 0-.954.143-1.32.43-.367.28-.677.693-.93 1.24v6.39h-2.47zm12.031 0v-14.86h2.47v5.71c.4-.38.84-.687 1.32-.92.48-.233 1.043-.35 1.69-.35.56 0 1.057.096 1.49.29.433.187.793.453 1.08.8.293.34.513.75.66 1.23.153.473.23.997.23 1.57v6.53h-2.47v-6.53c0-.627-.147-1.11-.44-1.45-.287-.347-.72-.52-1.3-.52a2.57 2.57 0 00-1.2.29 4.303 4.303 0 00-1.06.79v7.42h-2.47zm14.656 2.82a.9.9 0 01-.29.39c-.114.093-.29.14-.53.14h-1.84l1.92-4.11-4.15-9.5h2.16c.2 0 .353.046.46.14.106.093.186.2.24.32l2.19 5.32c.073.173.136.353.19.54.053.187.1.373.14.56.053-.194.11-.38.17-.56.066-.18.136-.363.21-.55l2.06-5.31a.725.725 0 01.68-.46h1.98l-5.59 13.08zm7.024.53v-13.61h1.51a.74.74 0 01.41.11.518.518 0 01.22.34l.2.95a5.194 5.194 0 011.42-1.15c.54-.293 1.17-.44 1.89-.44.56 0 1.07.117 1.53.35a3.38 3.38 0 011.2 1.02c.34.44.6.987.78 1.64.186.646.28 1.39.28 2.23a7.05 7.05 0 01-.31 2.13 5.176 5.176 0 01-.89 1.7c-.38.48-.844.856-1.39 1.13-.54.267-1.147.4-1.82.4-.58 0-1.074-.087-1.48-.26-.4-.18-.76-.427-1.08-.74v4.2h-2.47zm4.8-11.85c-.514 0-.954.11-1.32.33-.36.213-.697.517-1.01.91v4.6c.28.346.583.59.91.73.333.133.69.2 1.07.2.373 0 .71-.07 1.01-.21a1.93 1.93 0 00.77-.64c.213-.287.376-.647.49-1.08.113-.44.17-.957.17-1.55 0-.6-.05-1.107-.15-1.52-.094-.42-.23-.76-.41-1.02-.18-.26-.4-.45-.66-.57a2.014 2.014 0 00-.87-.18zm10.748-1.92c.647 0 1.24.103 1.78.31.547.207 1.017.51 1.41.91.394.393.7.88.92 1.46.22.573.33 1.23.33 1.97 0 .186-.01.343-.03.47a.668.668 0 01-.09.29.37.37 0 01-.17.15.826.826 0 01-.28.04h-6.34c.074 1.053.357 1.826.85 2.32.494.493 1.147.74 1.96.74.4 0 .744-.047 1.03-.14.294-.093.547-.197.76-.31.22-.113.41-.217.57-.31a.986.986 0 01.48-.14c.1 0 .187.02.26.06.074.04.137.097.19.17l.72.9c-.273.32-.58.59-.92.81-.34.213-.696.386-1.07.52a5.913 5.913 0 01-1.13.27c-.38.053-.75.08-1.11.08a5.553 5.553 0 01-1.99-.35 4.553 4.553 0 01-1.6-1.05 4.993 4.993 0 01-1.07-1.72c-.26-.687-.39-1.48-.39-2.38 0-.7.114-1.357.34-1.97.227-.62.55-1.157.97-1.61.427-.46.944-.824 1.55-1.09.614-.267 1.304-.4 2.07-.4zm.05 1.77c-.72 0-1.283.203-1.69.61-.406.406-.666.983-.78 1.73h4.64c0-.32-.043-.62-.13-.9a2.073 2.073 0 00-.4-.75 1.839 1.839 0 00-.68-.5 2.262 2.262 0 00-.96-.19zm6.394 8.65v-10.26h1.45c.253 0 .43.046.53.14.1.093.166.253.2.48l.15 1.24c.366-.633.796-1.133 1.29-1.5a2.713 2.713 0 011.66-.55c.506 0 .926.117 1.26.35l-.32 1.85c-.02.12-.064.206-.13.26a.464.464 0 01-.27.07c-.1 0-.237-.023-.41-.07a2.754 2.754 0 00-.69-.07c-.514 0-.954.143-1.32.43-.367.28-.677.693-.93 1.24v6.39h-2.47zm7.844-7.07h5.18v2.06h-5.18v-2.06zm11.057-3.37c.44 0 .854.046 1.24.14.387.087.74.216 1.06.39h2.95v.92a.51.51 0 01-.12.36c-.08.086-.216.146-.41.18l-.92.17c.067.173.117.357.15.55.04.193.06.396.06.61a3.038 3.038 0 01-1.15 2.42c-.353.287-.776.51-1.27.67a5.259 5.259 0 01-1.59.23 5.75 5.75 0 01-1.13-.11c-.32.193-.48.41-.48.65 0 .207.094.36.28.46.194.093.444.16.75.2.314.04.667.067 1.06.08.394.006.797.026 1.21.06.414.033.817.093 1.21.18.394.08.744.21 1.05.39.314.18.564.427.75.74.194.307.29.703.29 1.19 0 .453-.113.893-.34 1.32a3.46 3.46 0 01-.97 1.14c-.42.333-.936.6-1.55.8-.613.206-1.313.31-2.1.31-.78 0-1.456-.077-2.03-.23-.573-.147-1.05-.347-1.43-.6-.373-.247-.653-.534-.84-.86a2.035 2.035 0 01-.28-1.02c0-.48.147-.883.44-1.21.294-.327.7-.587 1.22-.78a1.709 1.709 0 01-.61-.56c-.153-.233-.23-.537-.23-.91 0-.154.027-.31.08-.47.054-.167.134-.33.24-.49.114-.16.254-.31.42-.45.167-.147.364-.277.59-.39-.52-.28-.93-.654-1.23-1.12-.293-.467-.44-1.014-.44-1.64 0-.507.1-.963.3-1.37a3.1 3.1 0 01.85-1.05 3.897 3.897 0 011.29-.67 5.54 5.54 0 011.63-.23zm2.71 10.9c0-.2-.06-.364-.18-.49a1.142 1.142 0 00-.49-.29 3.393 3.393 0 00-.73-.16 11.243 11.243 0 00-.88-.07c-.306-.02-.626-.037-.96-.05-.326-.02-.643-.05-.95-.09a2.27 2.27 0 00-.68.55c-.166.206-.25.447-.25.72 0 .18.044.347.13.5.094.16.237.297.43.41.2.113.457.2.77.26.314.066.697.1 1.15.1a5.6 5.6 0 001.19-.11 2.6 2.6 0 00.82-.29c.22-.12.38-.267.48-.44.1-.167.15-.35.15-.55zm-2.71-5.84c.307 0 .574-.04.8-.12.227-.087.414-.204.56-.35.154-.147.267-.323.34-.53.08-.207.12-.434.12-.68 0-.507-.153-.907-.46-1.2-.3-.3-.753-.45-1.36-.45-.606 0-1.063.15-1.37.45-.3.293-.45.693-.45 1.2 0 .24.037.463.11.67.08.206.194.387.34.54.154.146.344.263.57.35.234.08.5.12.8.12zm6.802 5.38v-10.26h1.45c.253 0 .43.046.53.14.1.093.167.253.2.48l.15 1.24c.367-.633.797-1.133 1.29-1.5a2.715 2.715 0 011.66-.55c.507 0 .927.117 1.26.35l-.32 1.85c-.02.12-.063.206-.13.26a.464.464 0 01-.27.07c-.1 0-.237-.023-.41-.07a2.744 2.744 0 00-.69-.07c-.513 0-.953.143-1.32.43-.367.28-.677.693-.93 1.24v6.39h-2.47zm12.544-10.42c.767 0 1.46.123 2.08.37.627.247 1.16.597 1.6 1.05.44.453.78 1.006 1.02 1.66.24.653.36 1.383.36 2.19 0 .813-.12 1.547-.36 2.2a4.75 4.75 0 01-1.02 1.67c-.44.46-.973.813-1.6 1.06-.62.246-1.313.37-2.08.37-.767 0-1.463-.123-2.09-.37a4.52 4.52 0 01-1.61-1.06 4.875 4.875 0 01-1.03-1.67c-.24-.654-.36-1.387-.36-2.2 0-.807.12-1.537.36-2.19a4.77 4.77 0 011.03-1.66 4.588 4.588 0 011.61-1.05c.627-.247 1.323-.37 2.09-.37zm0 8.67c.853 0 1.483-.287 1.89-.86.413-.574.62-1.414.62-2.52 0-1.107-.207-1.95-.62-2.53-.407-.58-1.037-.87-1.89-.87-.867 0-1.507.293-1.92.88-.413.58-.62 1.42-.62 2.52s.207 1.94.62 2.52c.413.573 1.053.86 1.92.86zm5.737-8.51h1.96c.187 0 .344.043.47.13a.555.555 0 01.24.33l1.47 5.48c.08.3.144.593.19.88.054.287.104.573.15.86.074-.287.15-.573.23-.86.087-.287.177-.58.27-.88l1.7-5.5a.62.62 0 01.24-.33c.12-.087.26-.13.42-.13h1.09c.18 0 .33.043.45.13.12.086.2.197.24.33l1.68 5.6c.087.286.164.566.23.84.074.266.144.537.21.81.047-.287.097-.573.15-.86.06-.287.134-.584.22-.89l1.52-5.48a.564.564 0 01.24-.33.763.763 0 01.44-.13h1.87l-3.25 10.26h-1.99c-.213 0-.366-.147-.46-.44l-1.85-5.93c-.06-.194-.116-.387-.17-.58a11.57 11.57 0 01-.12-.59c-.04.2-.083.4-.13.6-.046.193-.1.39-.16.59l-1.87 5.91c-.093.293-.273.44-.54.44h-1.89l-3.25-10.26zm20.441 10.42c-.887 0-1.57-.25-2.051-.75-.479-.507-.719-1.204-.719-2.09v-5.73h-1.04a.516.516 0 01-.35-.13c-.094-.087-.14-.217-.14-.39v-.98l1.65-.27.52-2.8a.498.498 0 01.18-.31c.1-.073.223-.11.37-.11h1.28v3.23h2.7v1.76h-2.7v5.56c0 .32.08.57.24.75.16.18.373.27.64.27.153 0 .28-.017.379-.05.107-.04.197-.08.271-.12.08-.04.15-.077.21-.11.06-.04.12-.06.18-.06.073 0 .133.02.18.06a.741.741 0 01.15.16l.74 1.2c-.36.3-.774.526-1.24.68-.467.153-.95.23-1.45.23zm4.364-.16v-14.86h2.47v5.71c.4-.38.84-.687 1.32-.92.48-.233 1.043-.35 1.69-.35.56 0 1.057.096 1.49.29.433.187.793.453 1.08.8.293.34.513.75.66 1.23.153.473.23.997.23 1.57v6.53h-2.47v-6.53c0-.627-.147-1.11-.44-1.45-.287-.347-.72-.52-1.3-.52a2.57 2.57 0 00-1.2.29 4.303 4.303 0 00-1.06.79v7.42h-2.47zm22.444-8.09a1.11 1.11 0 01-.22.22c-.066.053-.166.08-.3.08a.702.702 0 01-.37-.11 6.519 6.519 0 00-.43-.26 2.77 2.77 0 00-.6-.26 2.58 2.58 0 00-.85-.12c-.433 0-.813.08-1.14.24-.326.153-.6.377-.82.67-.213.293-.373.65-.48 1.07a5.69 5.69 0 00-.16 1.41c0 .547.057 1.033.17 1.46.12.427.29.787.51 1.08.22.287.487.506.8.66.314.146.667.22 1.06.22.394 0 .71-.047.95-.14a3.3 3.3 0 00.62-.32c.167-.12.31-.227.43-.32.127-.1.267-.15.42-.15.2 0 .35.076.45.23l.71.9c-.273.32-.57.59-.89.81-.32.213-.653.386-1 .52-.34.127-.693.216-1.06.27-.366.053-.73.08-1.09.08-.633 0-1.23-.117-1.79-.35a4.285 4.285 0 01-1.47-1.04 5.122 5.122 0 01-.99-1.66c-.24-.66-.36-1.41-.36-2.25 0-.753.107-1.45.32-2.09.22-.647.54-1.203.96-1.67a4.35 4.35 0 011.56-1.11c.62-.267 1.334-.4 2.14-.4.767 0 1.437.123 2.01.37.58.247 1.1.6 1.56 1.06l-.65.9zm6.702-2.33c.766 0 1.46.123 2.08.37.626.247 1.16.597 1.6 1.05.44.453.78 1.006 1.02 1.66.24.653.36 1.383.36 2.19 0 .813-.12 1.547-.36 2.2a4.75 4.75 0 01-1.02 1.67c-.44.46-.974.813-1.6 1.06-.62.246-1.314.37-2.08.37-.767 0-1.464-.123-2.09-.37a4.51 4.51 0 01-1.61-1.06 4.86 4.86 0 01-1.03-1.67c-.24-.654-.36-1.387-.36-2.2 0-.807.12-1.537.36-2.19a4.755 4.755 0 011.03-1.66 4.579 4.579 0 011.61-1.05c.626-.247 1.323-.37 2.09-.37zm0 8.67c.853 0 1.483-.287 1.89-.86.413-.574.62-1.414.62-2.52 0-1.107-.207-1.95-.62-2.53-.407-.58-1.037-.87-1.89-.87-.867 0-1.507.293-1.92.88-.414.58-.62 1.42-.62 2.52s.206 1.94.62 2.52c.413.573 1.053.86 1.92.86zm6.987 1.75v-10.26h1.51c.32 0 .53.15.63.45l.16.76c.18-.2.366-.383.56-.55a3.336 3.336 0 011.35-.71c.26-.073.543-.11.85-.11.646 0 1.176.176 1.59.53.42.347.733.81.94 1.39.16-.34.36-.63.6-.87.24-.247.503-.447.79-.6.286-.153.59-.267.91-.34.326-.073.653-.11.98-.11.566 0 1.07.086 1.51.26.44.173.81.426 1.11.76.3.333.526.74.68 1.22.16.48.24 1.03.24 1.65v6.53h-2.47v-6.53c0-.654-.144-1.143-.43-1.47-.287-.334-.707-.5-1.26-.5-.254 0-.49.043-.71.13a1.698 1.698 0 00-.57.38c-.16.16-.287.363-.38.61-.094.246-.14.53-.14.85v6.53h-2.48v-6.53c0-.687-.14-1.187-.42-1.5-.274-.313-.68-.47-1.22-.47-.354 0-.687.09-1 .27a3.284 3.284 0 00-.86.72v7.51H396zm16.836 3.35v-13.61h1.51a.74.74 0 01.41.11.518.518 0 01.22.34l.2.95a5.194 5.194 0 011.42-1.15c.54-.293 1.17-.44 1.89-.44.56 0 1.07.117 1.53.35a3.38 3.38 0 011.2 1.02c.34.44.6.987.78 1.64.186.646.28 1.39.28 2.23a7.05 7.05 0 01-.31 2.13 5.176 5.176 0 01-.89 1.7c-.38.48-.844.856-1.39 1.13-.54.267-1.147.4-1.82.4-.58 0-1.074-.087-1.48-.26-.4-.18-.76-.427-1.08-.74v4.2h-2.47zm4.8-11.85c-.514 0-.954.11-1.32.33-.36.213-.697.517-1.01.91v4.6c.28.346.583.59.91.73.333.133.69.2 1.07.2.373 0 .71-.07 1.01-.21a1.93 1.93 0 00.77-.64c.213-.287.376-.647.49-1.08.113-.44.17-.957.17-1.55 0-.6-.05-1.107-.15-1.52-.094-.42-.23-.76-.41-1.02-.18-.26-.4-.45-.66-.57a2.014 2.014 0 00-.87-.18zm14.548 8.5h-1.11c-.233 0-.416-.034-.55-.1-.133-.073-.233-.217-.3-.43l-.22-.73c-.26.233-.516.44-.77.62-.246.173-.503.32-.77.44-.266.12-.55.21-.85.27-.3.06-.633.09-1 .09-.433 0-.833-.057-1.2-.17a2.705 2.705 0 01-.95-.53 2.416 2.416 0 01-.61-.87 3.098 3.098 0 01-.22-1.21c0-.387.1-.767.3-1.14.207-.38.547-.72 1.02-1.02.474-.307 1.104-.56 1.89-.76.787-.2 1.764-.314 2.93-.34v-.6c0-.687-.146-1.194-.44-1.52-.286-.334-.706-.5-1.26-.5-.4 0-.733.046-1 .14-.266.093-.5.2-.7.32-.193.113-.373.216-.54.31-.166.093-.35.14-.55.14a.716.716 0 01-.43-.13 1.03 1.03 0 01-.29-.32l-.45-.79c1.18-1.08 2.604-1.62 4.27-1.62.6 0 1.134.1 1.6.3.474.193.874.466 1.2.82.327.346.574.763.74 1.25.174.487.26 1.02.26 1.6v6.48zm-4.8-1.54c.254 0 .487-.024.7-.07.214-.047.414-.117.6-.21.194-.093.377-.207.55-.34.18-.14.36-.303.54-.49v-1.73c-.72.033-1.323.096-1.81.19-.48.087-.866.2-1.16.34-.293.14-.503.303-.63.49-.12.186-.18.39-.18.61 0 .433.127.743.38.93.26.186.597.28 1.01.28zm7.229 1.54v-10.26h1.51c.32 0 .53.15.63.45l.17.81c.207-.213.423-.407.65-.58.233-.174.477-.324.73-.45.26-.127.537-.223.83-.29.293-.067.613-.1.96-.1.56 0 1.057.096 1.49.29.433.187.793.453 1.08.8.293.34.513.75.66 1.23.153.473.23.997.23 1.57v6.53h-2.47v-6.53c0-.627-.147-1.11-.44-1.45-.287-.347-.72-.52-1.3-.52a2.57 2.57 0 00-1.2.29 4.303 4.303 0 00-1.06.79v7.42h-2.47zm13.997-10.26v10.26h-2.47v-10.26h2.47zm.37-2.99c0 .213-.043.413-.13.6-.087.187-.203.35-.35.49-.14.14-.307.253-.5.34-.193.08-.4.12-.62.12a1.58 1.58 0 01-.61-.12 1.69 1.69 0 01-.83-.83 1.606 1.606 0 010-1.22c.087-.194.2-.36.34-.5s.303-.25.49-.33c.193-.087.397-.13.61-.13.22 0 .427.043.62.13.193.08.36.19.5.33.147.14.263.306.35.5.087.193.13.4.13.62zm6.67 2.83c.647 0 1.24.103 1.78.31.547.207 1.017.51 1.41.91.393.393.7.88.92 1.46.22.573.33 1.23.33 1.97 0 .186-.01.343-.03.47a.668.668 0 01-.09.29.374.374 0 01-.17.15.83.83 0 01-.28.04h-6.34c.073 1.053.357 1.826.85 2.32.493.493 1.147.74 1.96.74.4 0 .743-.047 1.03-.14.293-.093.547-.197.76-.31.22-.113.41-.217.57-.31a.986.986 0 01.48-.14c.1 0 .187.02.26.06.073.04.137.097.19.17l.72.9c-.273.32-.58.59-.92.81-.34.213-.697.386-1.07.52a5.931 5.931 0 01-1.13.27c-.38.053-.75.08-1.11.08a5.55 5.55 0 01-1.99-.35 4.544 4.544 0 01-1.6-1.05 4.993 4.993 0 01-1.07-1.72c-.26-.687-.39-1.48-.39-2.38 0-.7.113-1.357.34-1.97.227-.62.55-1.157.97-1.61.427-.46.943-.824 1.55-1.09.613-.267 1.303-.4 2.07-.4zm.05 1.77c-.72 0-1.283.203-1.69.61-.407.406-.667.983-.78 1.73h4.64c0-.32-.043-.62-.13-.9a2.088 2.088 0 00-.4-.75 1.847 1.847 0 00-.68-.5 2.262 2.262 0 00-.96-.19zm12.483.39a.7.7 0 01-.21.23.578.578 0 01-.28.06.913.913 0 01-.39-.1 11.47 11.47 0 00-.47-.22 3.89 3.89 0 00-.62-.23 2.887 2.887 0 00-.81-.1c-.486 0-.87.103-1.15.31a.962.962 0 00-.42.81.8.8 0 00.21.56c.147.146.337.277.57.39.24.113.51.216.81.31.3.087.607.183.92.29.314.107.62.23.92.37.3.133.567.306.8.52.24.206.43.456.57.75.147.293.22.646.22 1.06 0 .493-.09.95-.27 1.37-.18.413-.443.773-.79 1.08-.346.3-.776.537-1.29.71-.506.166-1.09.25-1.75.25-.353 0-.7-.034-1.04-.1a5.687 5.687 0 01-1.83-.66c-.26-.154-.49-.32-.69-.5l.57-.94c.074-.114.16-.2.26-.26a.73.73 0 01.38-.09c.154 0 .297.043.43.13.14.087.3.18.48.28.18.1.39.193.63.28.247.086.557.13.93.13.294 0 .544-.034.75-.1.214-.073.387-.167.52-.28a.978.978 0 00.3-.39c.067-.154.1-.31.1-.47a.817.817 0 00-.22-.59 1.804 1.804 0 00-.57-.4 4.907 4.907 0 00-.81-.3c-.3-.093-.61-.194-.93-.3-.313-.107-.623-.23-.93-.37-.3-.147-.57-.33-.81-.55a2.58 2.58 0 01-.57-.81c-.14-.32-.21-.707-.21-1.16 0-.42.084-.82.25-1.2.167-.38.41-.71.73-.99.327-.287.73-.514 1.21-.68.487-.174 1.047-.26 1.68-.26.707 0 1.35.117 1.93.35.58.233 1.064.54 1.45.92l-.56.89zm2.451 6.9c0-.207.037-.404.11-.59a1.52 1.52 0 01.32-.48c.14-.134.303-.24.49-.32.187-.08.387-.12.6-.12.207 0 .403.04.59.12.187.08.347.186.48.32a1.52 1.52 0 01.44 1.07c0 .213-.04.413-.12.6a1.55 1.55 0 01-.32.47 1.379 1.379 0 01-.48.31c-.187.08-.383.12-.59.12a1.51 1.51 0 01-.6-.12 1.49 1.49 0 01-.49-.31 1.55 1.55 0 01-.32-.47 1.632 1.632 0 01-.11-.6zm0-7.13c0-.207.037-.403.11-.59a1.52 1.52 0 01.32-.48c.14-.133.303-.24.49-.32.187-.08.387-.12.6-.12.207 0 .403.04.59.12.187.08.347.187.48.32a1.52 1.52 0 01.44 1.07c0 .213-.04.413-.12.6a1.505 1.505 0 01-.8.79c-.187.073-.383.11-.59.11-.213 0-.413-.037-.6-.11a1.634 1.634 0 01-.49-.32 1.55 1.55 0 01-.32-.47 1.632 1.632 0 01-.11-.6zM64.9 97.212h-4.302V82.496h-5.26v-3.411h14.864v3.41H64.9v14.717z" fill="#F6F7FA"/><path d="M73.897 97.676c-1.111 0-3.179-.208-4.534-1.611-1.102-1.145-1.66-2.82-1.66-4.975 0-2.774.9-4.805 2.676-6.032a6.508 6.508 0 013.615-1.069c1.378 0 3.884.404 5.216 3.113.695 1.525.827 3.211.748 4.862h-8.293c.033 1.275.284 2.774 2.28 2.815 1.088.027 1.703-.514 1.966-1.708h3.758l-.022.26c-.041.503-.14 1.68-1.241 2.831-.915.964-2.56 1.516-4.51 1.516l.001-.002zm1.886-8.46c-.047-1.091-.436-2.278-1.91-2.278-1.592 0-1.978 1.437-2.067 2.277h3.977zM86.048 97.506c-2.826.097-4.372-1.66-4.405-3.926 0-1.038.359-2.944 2.762-4.05 1.406-.473 1.892-.59 4.76-.705l.038 2.584c-4.113-.09-3.985 2.147-2.948 2.998.946.776 3.091.276 2.942-3.004l-.084-2.58c-.005-.635-.037-.956-.158-1.319-.289-.82-1.207-.86-1.388-.86-.486 0-.924.215-1.174.578-.227.35-.227.69-.227.963v.24h-4.044l.009-.25c.023-.62.077-2.076 1.497-3.09.971-.694 2.28-1.046 3.89-1.046 1.175 0 3.335.217 4.593 1.67.916 1.1.916 2.668.916 3.184l.025 4.958c0 1.165.094 2.172.288 3.075l.063.291-3.742.015c-.082-.125-.158-1.251-.158-1.251h-.028c-.05.256-1.426 1.462-2.964 1.527M111.602 97.21V89.72c0-1.526-.313-2.542-1.841-2.542-1.842 0-1.988 1.567-1.988 3.616v6.414h-4.134v-7.562c0-1.195-.139-2.47-1.793-2.47-2.037 0-2.037 1.718-2.037 2.543v7.492h-4.134V86.96c0-.685-.039-1.414-.122-2.296l-.024-.263h3.992l.092 1.198c.568-.63 1.64-1.467 3.629-1.467 1.305 0 2.995.368 3.915 2.043.861-1.358 2.155-2.017 3.951-2.017 2.549 0 3.635 1.47 3.984 2.1.65 1.055.646 2.497.643 3.546v7.404h-4.134l.001.002zM124.735 94.73l5.47-15.62h2.129l-6.597 18.102h-2.13l-6.639-18.102h2.255l5.512 15.62zM133.858 97.21V84.478h1.953V97.21h-1.953zm-.123-15.794v-2.31h2.198v2.31h-2.198zM144.004 97.58c-3.89 0-5.632-3.381-5.632-6.734 0-3.244 1.793-6.734 5.729-6.734 3.825.034 5.854 2.577 5.854 7.312h-9.5c.076 1.475.658 4.326 4.014 4.326 1.601 0 2.964-1.126 3.317-2.74l.042-.189h2.049c-.988 4.285-3.667 4.697-5.875 4.75l.002.01zm3.853-7.973c-.254-2.336-1.603-3.67-3.73-3.67-2.3 0-3.362 1.92-3.602 3.67h7.332zM159.809 84.48h2.046l3.508 9.808 3.382-9.808h2.171l-4.76 12.733h-1.754l-3.633-10.167-3.716 10.166h-1.795l-4.719-12.732h2.13l3.549 9.916 3.591-9.916zM177.033 97.58c-3.89 0-5.633-3.381-5.633-6.734 0-3.244 1.793-6.734 5.729-6.734 4.032.005 5.896 2.945 5.854 7.312h-9.499c.076 1.475.658 4.326 4.013 4.326 1.612-.038 2.902-.906 3.36-2.929h2.049c-1.004 4.197-3.697 4.713-5.875 4.75l.002.01zm3.852-7.973c-.253-2.336-1.602-3.67-3.73-3.67-2.299 0-3.362 1.92-3.601 3.67h7.331zM185.76 97.21v-9.733c.016-.972-.07-1.854-.122-2.744l-.015-.255h2.006l.048 1.187c.595-.915 1.563-1.511 2.602-1.553.145-.007.292-.01.44-.01.351 0 .705.017 1.047.034l.229.012.005.229v1.676c-3.42-.582-4.184 1.642-4.226 3.228l-.083 7.928M42.121 66.912H8.25a4.514 4.514 0 00-3.135 1.316 4.362 4.362 0 00-1.283 3.105v33.752a4.36 4.36 0 001.292 3.113 4.51 4.51 0 003.15 1.308h33.873a4.511 4.511 0 003.15-1.308 4.36 4.36 0 001.292-3.113V71.333a4.337 4.337 0 00-.334-1.688 4.395 4.395 0 00-.966-1.434 4.48 4.48 0 00-1.452-.96 4.542 4.542 0 00-1.716-.34zM25.194 105.82c-4.717-.036-9.226-1.911-12.537-5.213-3.31-3.303-5.153-7.762-5.121-12.399-.032-4.637 1.81-9.096 5.121-12.399 3.311-3.302 7.82-5.177 12.537-5.213 4.719.033 9.23 1.906 12.545 5.209 3.313 3.303 5.157 7.764 5.126 12.403.031 4.639-1.813 9.1-5.126 12.403-3.314 3.303-7.826 5.176-12.545 5.209z" fill="#F6F7FA"/><path d="M41.587 88.209l-12.255-5.645.985 3.617H20.078l.985-3.617-12.255 5.65 12.263 5.644-.984-3.617h10.238l-.984 3.617 12.246-5.645" fill="#F6F7FA"/><path d="M240.38 70.354H232.126a1.809 1.809 0 100 3.616h7.775a11.418 11.418 0 010 22.828h-5.967v-7.954a1.809 1.809 0 00-3.616 0v9.762a1.808 1.808 0 001.808 1.808h7.775a15.029 15.029 0 0014.702-14.777 15.024 15.024 0 00-14.21-15.251l-.013-.032z" fill="#fff"/><path d="M243.485 94.408l.703-.249c2.025-.728 4.396-2.466 4.396-4.977a13.372 13.372 0 00-13.353-13.353h-3.105a1.808 1.808 0 100 3.617h3.105a9.759 9.759 0 018.335 4.726 9.755 9.755 0 01.271 9.578l-.352.658zM277.385 90.32a1.968 1.968 0 01-2 1.955h-13.762a6.088 6.088 0 005.75 4.114 7.834 7.834 0 004.473-1.322 1.915 1.915 0 012.632.92 2.073 2.073 0 01-.958 2.632 9.767 9.767 0 01-6.147 1.718 10.016 10.016 0 01-6.919-17.008 10.017 10.017 0 016.919-3.02c4.824 0 10.012 3.507 10.012 10.01zm-15.762-1.994h11.501a5.841 5.841 0 00-5.751-4.07 6.102 6.102 0 00-5.75 4.07zM307.867 88.524c.035.06.05.13.044.198v9.699a1.996 1.996 0 01-1.999 1.993 1.982 1.982 0 01-1.393-.59 1.969 1.969 0 01-.562-1.403V88.364a4.07 4.07 0 00-8.14 0v10.057a1.97 1.97 0 01-.561 1.405 1.973 1.973 0 01-1.394.588 2.002 2.002 0 01-1.993-1.993V88.364a4.05 4.05 0 00-8.101 0v10.057a1.972 1.972 0 01-1.975 1.974 1.976 1.976 0 01-1.974-1.974V88.364a8.014 8.014 0 017.999-7.98 7.904 7.904 0 016.044 2.748 7.912 7.912 0 016.025-2.754 8.012 8.012 0 018.024 7.98c0 .09 0 .128-.044.166zM310.179 90.32a10.018 10.018 0 1120.037 0 10.018 10.018 0 01-20.037 0zm3.949 0a6.067 6.067 0 0012.022 1.189 6.07 6.07 0 00-5.959-7.253 6.09 6.09 0 00-6.095 6.064h.032zM348.653 82.263v-9.935a1.972 1.972 0 011.974-1.974 1.973 1.973 0 011.975 1.974v17.89a10 10 0 01-18.961 4.415 10.004 10.004 0 012.596-12.145 9.999 9.999 0 0112.416-.25v.025zm0 7.98v-.038a6.082 6.082 0 100 .038zM374.95 90.32a1.974 1.974 0 01-2 1.955h-13.761a6.08 6.08 0 005.75 4.114 7.834 7.834 0 004.472-1.322 1.918 1.918 0 012.632.92 2.076 2.076 0 01-.958 2.632 9.766 9.766 0 01-6.146 1.718 10.015 10.015 0 01-10.271-10.014 10.006 10.006 0 013.024-7.173 10.013 10.013 0 017.247-2.842c4.823 0 10.011 3.508 10.011 10.011zm-15.761-1.994h11.5a5.847 5.847 0 00-5.789-4.07 6.101 6.101 0 00-5.711 4.07zM391.229 94.39c0 1.156-.837 5.986-6.664 5.986-2.792 0-6.063-1.24-7.143-4.032a1.227 1.227 0 01-.083-.556 2.057 2.057 0 012.038-1.955 1.916 1.916 0 011.515.76 4.098 4.098 0 003.59 1.873c2.556 0 2.754-1.757 2.799-2.077 0-1.354-1.4-1.916-3.316-2.114-2.434-.275-6.626-1.598-6.626-5.98 0-3.834 3.233-6.108 6.747-6.108a8.544 8.544 0 013.833.92c.403.198 3.316 1.514 3.316 3.948a2.115 2.115 0 01-2.038 1.917c-.958 0-1.354-.64-1.833-1.361-.556-1.118-2.237-1.476-3.355-1.476-1.475 0-2.747.837-2.747 2.198 0 2.868 4.306.996 7.616 3.552a6.03 6.03 0 012.351 4.504zM409.265 99.775a1.928 1.928 0 01-1.427.468 1.917 1.917 0 01-1.327-.704l-7.583-9.098-1.221.837v6.983a2 2 0 01-1.999 1.993 1.968 1.968 0 01-1.955-1.993V72.405a1.96 1.96 0 011.942-1.955 1.991 1.991 0 012.012 1.955v14.203l9.054-5.942a1.97 1.97 0 012.237-.307 1.98 1.98 0 01.995 1.2 1.968 1.968 0 01-.186 1.548 1.967 1.967 0 01-.529.594l-6.983 4.587 7.264 8.74a1.955 1.955 0 01-.294 2.747z" fill="#fff"/><mask id="a" maskUnits="userSpaceOnUse" x="0" y="150" width="190" height="33"><path d="M.767 150.692H189.4v32.037H.767v-32.037z" fill="#fff"/></mask><g mask="url(#a)"><path fill-rule="evenodd" clip-rule="evenodd" d="M3.957 179.538h182.25V153.83H3.957v25.708zm-3.19 3.191v-32.037h188.634v32.037H.767z" fill="#fff"/></g><path fill-rule="evenodd" clip-rule="evenodd" d="M170.418 161.007v4.224c1.297.15 2.344-.058 2.64-.579.52-.918.592-1.963.109-2.84-.564-1.028-1.708-.82-2.749-.805zm-.016 11.402c1.074-.081 2.228.251 2.856-.836.677-1.175.653-2.466-.073-3.598-.643-1.001-1.765-.679-2.783-.709v5.143zm-2.82-13.22c1.839 0 3.632-.135 5.396.035 2.069.201 3.183 1.801 2.926 3.828-.111.878-.103 1.804-.906 2.425-.269.209-.559.391-.878.611.365.226.762.41 1.082.683 1.047.893 1.23 2.144 1.186 3.387-.038 1.077-.304 2.13-1.096 2.994-.729.794-1.664 1.117-2.663 1.164-1.659.077-3.325.021-5.047.021v-15.148zM38.632 165.289c.975-.044 1.998.197 2.606-.677.623-.893.667-1.973.072-2.883-.618-.946-1.684-.74-2.678-.712v4.272zm.021 1.969v5.131c1.048-.036 2.212.257 2.797-.816.627-1.147.621-2.419-.075-3.576-.647-1.072-1.74-.651-2.722-.739zm3.577-1.111c1.538.463 2.185 1.578 2.266 3.107.036.687-.02 1.389-.126 2.07-.322 2.094-1.822 2.875-3.542 2.989-1.656.11-3.325.024-5.045.024v-15.362c1.9.075 3.826-.025 5.686.279 1.582.258 2.588 1.151 2.584 3.186-.001.548.05 1.112-.057 1.641-.2.979-.54 1.324-1.766 2.066zM106.491 165.65c1.048-.041 2.124.072 2.671-.933.532-.98.534-2.095-.041-3.058-.596-.998-1.664-.653-2.63-.688v4.679zm5.912 8.688c-.866 0-1.646-.028-2.423.009-.595.028-.545-.451-.628-.755-.485-1.776-.913-3.567-1.395-5.344-.279-1.023-.309-1.015-1.494-.905v6.956h-2.83v-15.274c2.148.194 4.325-.34 6.457.445 1.074.396 1.722 1.159 1.896 2.175.169.982.11 2.023.01 3.024s-.803 1.661-1.713 2.172l2.12 7.497zM95.245 166.615c0 1.45-.014 2.899.004 4.348.014.996.454 1.421 1.406 1.427 1.163.007 1.603-.326 1.612-1.36.024-2.843.025-5.687.001-8.53-.009-1.101-.568-1.669-1.505-1.659-.924.011-1.516.681-1.517 1.727-.004 1.349-.001 2.698-.001 4.047zm5.906.076c0 1.274.021 2.549-.005 3.822-.043 2.137-1.404 4.076-4.037 3.994-1.14-.036-2.27-.012-3.228-.718-.966-.713-1.409-1.784-1.483-2.898-.198-3.003-.36-6.017.123-9.015.282-1.751 1.753-2.994 3.557-2.977.772.007 1.56.004 2.313.147 1.837.351 2.675 2.017 2.747 3.597.062 1.347.013 2.698.013 4.048zM27.586 165.632c1.046.025 2.112.105 2.713-.807.668-1.012.652-2.221.007-3.223-.62-.963-1.737-.585-2.72-.638v4.668zm3.163 8.664c-.512-1.96-1.04-3.923-1.531-5.894-.303-1.214-.276-1.22-1.648-1.039v6.916h-2.697v-15.253c2.183.17 4.397-.36 6.526.483.945.376 1.636 1.053 1.73 2.067.102 1.095.15 2.23-.038 3.303-.106.599-.667 1.187-1.16 1.629-.333.296-.441.445-.312.881.679 2.278 1.31 4.571 1.972 6.907H30.75zM64.898 174.318h-1.824l-3.592-8.685-.112.012v8.65h-2.38v-15.251c.526 0 1.075-.036 1.614.021.17.019.374.263.457.45 1.086 2.48 2.153 4.969 3.23 7.454.075.171.19.326.387.662v-8.549h2.22v15.236zM156.374 159.072h2.782v.791c0 3.371-.005 6.742.007 10.113.001.39.063.786.144 1.17.226 1.077.515 1.286 1.649 1.244.788-.029 1.122-.363 1.224-1.364.09-.887.146-1.78.151-2.671.018-3.068.007-6.138.007-9.259h2.724l.001.801c0 3.271.04 6.543-.025 9.814a9.05 9.05 0 01-.554 2.871c-.459 1.256-1.569 1.827-2.864 1.888-1.237.057-2.5.182-3.633-.596-1.124-.773-1.492-1.927-1.528-3.123-.111-3.79-.102-7.584-.138-11.376 0-.072.024-.144.053-.303zM13.615 159.078h2.725v.798c0 3.374-.003 6.748.004 10.123 0 .294.023.597.091.884.338 1.408.595 1.62 1.827 1.503.846-.08 1.168-.579 1.243-1.892.076-1.345.017-2.698.017-4.047 0-2.325 0-4.649.002-6.973 0-.12.015-.239.027-.393h2.64c.018.183.053.372.053.562.003 3.624.035 7.248-.016 10.872-.018 1.27-.314 2.547-1.51 3.274a4.723 4.723 0 01-2.08.663c-.904.055-1.842-.076-2.733-.269-1.03-.224-1.656-1.005-1.933-1.965a8.796 8.796 0 01-.341-2.33c-.035-3.573-.016-7.148-.016-10.81zM145.98 164.556h-2.714c-.053-.757-.107-1.495-.156-2.231-.063-.956-.485-1.444-1.287-1.483-.788-.038-1.568.59-1.58 1.441-.039 2.897-.043 5.794.008 8.69.012.614.222 1.323 1.046 1.405.666.066 1.447.169 1.7-.685.167-.56.163-1.173.206-1.766.028-.395.005-.793.005-1.238h2.737c-.036 1.353.048 2.676-.552 3.931-.617 1.291-1.67 1.856-3.062 1.862-.7.003-1.418.029-2.096-.109-2.025-.415-2.758-2.131-2.85-3.863a67.811 67.811 0 010-7.638c.124-2.095.986-4.044 4.104-3.973.671.015 1.359.035 2.007.188 1.41.331 2.072 1.397 2.305 2.705.156.873.123 1.778.179 2.764zM50.546 162.951l-.096-.015c-.324 1.976-.646 3.953-.974 5.962h2.035l-.965-5.947zm4.541 11.358h-2.622c-.181-1.011-.375-1.995-.524-2.986-.063-.419-.217-.636-.67-.589-.224.024-.453.005-.68.005-1.38 0-1.386-.002-1.657 1.268-.081.385-.117.779-.184 1.169-.062.362-.137.721-.215 1.123h-2.66l3.075-15.21h3.06l3.077 15.22zM85.125 165.59c1.006-.048 2.239.247 2.597-.781.332-.954.342-2.221-.022-3.152-.39-1.002-1.621-.637-2.575-.64v4.573zm-2.85-6.547c1.764 0 3.49-.138 5.184.035 2.165.222 2.998 1.332 3.213 3.501.086.865.009 1.809-.259 2.633-.582 1.792-1.82 2.164-3.654 2.368-.518.058-1.048.009-1.654.009v6.712h-2.83v-15.258zM122.49 169.859l2.503-.462c.085.574.056 1.155.272 1.627.22.483.599.995 1.05 1.249.747.423 1.545-.17 1.654-1.016.217-1.674-.908-2.571-1.969-3.535-.898-.816-1.843-1.601-2.622-2.519-1.126-1.327-1.163-3.613-.058-4.958.455-.553 1.201-.955 1.895-1.215 1.614-.606 3.499-.159 4.337 1.125.532.814.729 1.843 1.098 2.833l-2.6.433c-.09-.541-.153-1.002-.244-1.457-.128-.633-.747-1.162-1.273-1.11a1.484 1.484 0 00-1.304 1.323c-.1 1.177.643 1.883 1.404 2.617 1.16 1.118 2.429 2.172 3.367 3.458 1.389 1.902.985 5.407-1.938 6.1-2.512.595-4.893-.117-5.402-3.407l-.17-1.086zM74.5 169.399c.158.69.263 1.317.45 1.92.236.753.922 1.183 1.577 1.061.696-.13 1.006-.615 1.027-1.498.036-1.46-1.005-2.259-1.932-3.119-.746-.692-1.58-1.294-2.287-2.021-1.377-1.415-1.591-3.745-.523-5.41.23-.359.604-.646.956-.906 1.035-.767 3.935-.745 4.843.127.786.754 1.38 2.064 1.307 3.476l-2.298.395c-.094-.541-.158-.976-.246-1.406-.146-.704-.657-1.177-1.234-1.161-.685.017-1.286.611-1.337 1.355-.071 1.031.503 1.739 1.215 2.402 1.127 1.05 2.298 2.07 3.306 3.226 1.37 1.572 1.277 4.329-.115 5.642-1.399 1.32-3.078 1.294-4.752.689-1.506-.543-2.03-1.847-2.228-3.308-.04-.294-.048-.593-.08-1.003l2.35-.461zM118.897 174.32h-2.71v-13.149h-2.6v-2.084h7.811v2.035h-2.501v13.198zM148.157 159.079h2.802v13.283h3.758v1.939h-6.56v-15.222zM254.924 166.002a.454.454 0 010 .18 7.555 7.555 0 01-.507 2.737 7.274 7.274 0 01-1.442 2.254 6.744 6.744 0 01-2.253 1.599 7.04 7.04 0 01-2.917.597 6.95 6.95 0 01-2.907-.574 7.155 7.155 0 01-2.253-1.622 7.241 7.241 0 01-1.926-5.059 7.681 7.681 0 01.507-2.76 7.245 7.245 0 011.419-2.32 6.753 6.753 0 012.253-1.6 7.108 7.108 0 018.055 1.6 7.186 7.186 0 011.926 4.99l.045-.022zm20.515 7.164h-1.882l6.489-14.138h1.442l6.759 14.138h-1.96l-5.475-11.783c-1.509 3.379-2.546 5.317-4.078 8.663h7.593l-8.877 3.075-.011.045zm-45.738-1.689h7.886v1.689H228v-14.138h1.701v12.46-.011zm34.348-3.831l-6.027-8.618h2.118l4.822 6.85 4.72-6.85h2.253l-6.083 8.585v5.553h-1.803v-5.52zm30.417 3.831h7.886v1.689h-9.519v-14.138h1.633v12.46-.011zm14.251-10.748h-4.675v-1.701h11.062v1.701h-4.652v12.392h-1.701v-12.392h-.034zm15.85 6.917l-5.993-8.618h2.118l4.822 6.85 4.72-6.85h2.253l-6.117 8.585v5.553h-1.758v-5.52h-.045zm-76.706 4.079a4.958 4.958 0 003.796-1.611 5.634 5.634 0 001.499-3.966 6.094 6.094 0 00-.372-2.197 5.636 5.636 0 00-1.127-1.791 5.194 5.194 0 00-1.734-1.126 5.109 5.109 0 00-2.13-.44 4.955 4.955 0 00-3.774 1.566 5.636 5.636 0 00-1.498 3.966 6.063 6.063 0 00.406 2.196c.258.66.641 1.264 1.126 1.78a5.192 5.192 0 001.679 1.194c.67.298 1.396.448 2.129.44v-.011zM369.561 166.779c.33.144.641.33.924.552.366.282.656.649.845 1.07.224.554.328 1.149.304 1.746a12.2 12.2 0 00.338 2.546l.102.462h-1.825l-.136-.743a11.57 11.57 0 01-.259-2.558 2.076 2.076 0 00-.293-1.058 1.466 1.466 0 00-.326-.327l-.474-.316a2.024 2.024 0 00-.495-.18l-.89-.191a3.918 3.918 0 00-.732-.068h-4v5.486h-1.712v-14.172h5.858c.86.009 1.711.173 2.512.485.47.165.914.397 1.318.687a3.501 3.501 0 011.397 2.873 3.976 3.976 0 01-1.126 3.019 3.672 3.672 0 01-1.127.619l-.169.068h-.034zm9.396 6.388h-1.701v-14.139h1.701v14.139zm18.723-10.838l-4.574 6.917h-.541l-4.765-6.928v10.86h-1.701v-14.15h1.521l5.193 7.638 5.148-7.593h1.386v14.094h-1.701v-10.838h.034zm10.826 9.136H417v1.702h-10.206v-7.886h9.339v1.701h-7.661v4.506l.034-.023zm-1.667-9.17v-3.278h10.138l-10.138 3.278zm-52.249-2.253c.508.329.935.768 1.25 1.285.335.528.511 1.142.507 1.768a5.4 5.4 0 01-1.284 3.763 4.765 4.765 0 01-3.673 1.386h-3.864v4.956h-1.746v-14.172h5.858a5.455 5.455 0 012.952.992v.022zm-7.064 6.489h3.628a4.855 4.855 0 001.746-.293c1.352-.507 1.678-1.825 1.678-3.143a2.42 2.42 0 00-.788-1.521 2.575 2.575 0 00-1.915-.811h-4.36v5.779l.011-.011zm15.163-.529h3.628a5.219 5.219 0 003.064-.766 2.587 2.587 0 00.89-2.141 1.898 1.898 0 00-.89-1.678 4.018 4.018 0 00-2.343-.665h-4.36v5.25h.011zM338.018 140.756a428.934 428.934 0 000 49.917c.124-8.28.496-16.763.372-24.953.124-8.19-.248-16.684-.372-24.953v-.011z" fill="#fff"/></svg>