<svg width="151" height="26" fill="none" xmlns="http://www.w3.org/2000/svg"><path fill-rule="evenodd" clip-rule="evenodd" d="M36.59 4.115a57.32 57.32 0 00-1.46 1.788c-.551.7-1.143 1.468-1.773 2.3a86.568 86.568 0 00-1.931 2.656c-.657.938-1.306 1.885-1.945 2.841a84.618 84.618 0 00-1.814 2.825c-.569.93-1.08 1.806-1.536 2.63h10.721v1.55H24.178v-1.34c.386-.753.846-1.58 1.381-2.484a91.567 91.567 0 011.722-2.788 101.08 101.08 0 011.92-2.88c.666-.963 1.323-1.887 1.972-2.773.648-.885 1.266-1.705 1.854-2.459a35.185 35.185 0 011.617-1.945h-9.966V2.485H36.59v1.63zM49 12.818c-.035-1.42-.368-2.524-1-3.314-.63-.789-1.524-1.181-2.681-1.181-.614 0-1.162.12-1.644.367a4.191 4.191 0 00-1.262.986c-.359.41-.64.89-.84 1.432a5.885 5.885 0 00-.356 1.71H49zm-9.65 1.078c0-1.192.17-2.23.513-3.116.341-.885.788-1.627 1.34-2.222a5.287 5.287 0 011.894-1.328 5.783 5.783 0 012.195-.433c1.666 0 2.993.544 3.984 1.63.99 1.086 1.486 2.761 1.486 5.022 0 .14-.005.281-.013.42a5.22 5.22 0 01-.04.396h-9.545c.053 1.664.465 2.944 1.236 3.838.772.894 1.999 1.341 3.681 1.341.93 0 1.666-.087 2.209-.263.543-.175.938-.324 1.183-.447l.316 1.473c-.245.14-.706.307-1.38.498-.676.194-1.469.29-2.38.29-1.193 0-2.209-.175-3.05-.525-.842-.35-1.535-.841-2.078-1.473-.544-.631-.938-1.38-1.183-2.249-.246-.867-.368-1.819-.368-2.852z" fill="#343DFF"/><mask id="a" maskUnits="userSpaceOnUse" x="54" y="6" width="27" height="20"><path fill-rule="evenodd" clip-rule="evenodd" d="M54.574 6.848H80.08v18.795H54.574V6.848z" fill="#fff"/></mask><g mask="url(#a)" fill-rule="evenodd" clip-rule="evenodd" fill="#343DFF"><path d="M54.574 7.585c.509-.14 1.192-.299 2.052-.474.858-.175 1.91-.263 3.155-.263 1.034 0 1.897.15 2.59.447.692.3 1.244.724 1.657 1.275.411.553.705 1.215.88 1.986.175.772.263 1.621.263 2.552v7.597h-1.71V13.66c0-.964-.065-1.778-.196-2.446-.132-.664-.351-1.208-.658-1.63a2.554 2.554 0 00-1.21-.907c-.5-.184-1.126-.275-1.879-.275-.806 0-1.504.042-2.09.13-.588.09-.97.168-1.145.239v11.935h-1.709V7.585zM78.37 8.77a10.071 10.071 0 00-1.157-.251c-.472-.079-1.148-.118-2.024-.118-.736 0-1.39.127-1.959.38a4.118 4.118 0 00-1.459 1.08 4.763 4.763 0 00-.92 1.655 6.744 6.744 0 00-.316 2.117c0 .895.122 1.662.368 2.3.245.64.565 1.162.96 1.564.394.405.845.698 1.353.882a4.523 4.523 0 001.553.275c.77 0 1.476-.112 2.116-.341.64-.227 1.135-.49 1.485-.789V8.77zm.027 10.358a2.932 2.932 0 01-.474.303c-.21.114-.469.232-.775.354a6.132 6.132 0 01-1.052.304 6.833 6.833 0 01-1.328.118c-.789 0-1.552-.124-2.287-.369a5.099 5.099 0 01-1.933-1.157c-.553-.525-.995-1.205-1.328-2.037-.333-.833-.5-1.845-.5-3.038 0-.963.15-1.858.448-2.682a6.335 6.335 0 011.274-2.142 5.79 5.79 0 012.025-1.42c.798-.342 1.697-.514 2.696-.514 1.262 0 2.274.085 3.037.251.762.166 1.388.33 1.88.486v12.41c0 2.034-.526 3.485-1.578 4.354-1.052.867-2.638 1.3-4.76 1.3-.876 0-1.669-.065-2.379-.198-.71-.13-1.32-.284-1.828-.459l.343-1.551c.42.192.994.358 1.722.5.727.139 1.46.21 2.195.21 1.613 0 2.783-.311 3.51-.934.728-.622 1.092-1.687 1.092-3.194v-.895z"/></g><path fill-rule="evenodd" clip-rule="evenodd" d="M89.23 6.848c.561 0 1.092.046 1.591.133.5.088.846.175 1.039.263l-.342 1.471c-.14-.07-.425-.145-.855-.223-.43-.079-.994-.118-1.695-.118-.736 0-1.329.053-1.775.157-.447.106-.74.193-.881.263v11.911h-1.71V7.742c.439-.191 1.044-.39 1.815-.592.772-.199 1.71-.302 2.814-.302zM104.219 13.922c0-1.7-.395-3.054-1.184-4.062-.788-1.009-1.859-1.513-3.208-1.513-1.35 0-2.42.504-3.208 1.513-.789 1.008-1.183 2.363-1.183 4.062 0 1.7.394 3.05 1.183 4.05s1.858 1.498 3.208 1.498c1.349 0 2.42-.498 3.208-1.498.789-1 1.184-2.35 1.184-4.05zm1.814 0c0 1.07-.154 2.044-.46 2.92-.308.876-.737 1.62-1.289 2.234a5.843 5.843 0 01-1.959 1.433c-.754.341-1.587.514-2.498.514-.912 0-1.744-.172-2.498-.514a5.85 5.85 0 01-1.959-1.433c-.552-.614-.982-1.358-1.288-2.234-.307-.876-.46-1.85-.46-2.92 0-1.068.153-2.04.46-2.918.306-.876.736-1.627 1.288-2.25a5.82 5.82 0 011.96-1.445c.753-.341 1.585-.512 2.497-.512.911 0 1.744.17 2.498.512a5.815 5.815 0 011.959 1.446c.552.622.981 1.373 1.289 2.249.306.877.46 1.85.46 2.918zM118.512 7.111c.157.876.363 1.81.616 2.8a79.676 79.676 0 001.81 6.06c.343 1 .69 1.94 1.042 2.816.298-.666.615-1.476.95-2.43.334-.953.668-1.962 1.003-3.021.333-1.059.646-2.128.935-3.208a54.9 54.9 0 00.726-3.017h1.683c-.631 2.67-1.322 5.109-2.07 7.317a68.742 68.742 0 01-2.467 6.277h-1.585a54.318 54.318 0 01-.836-2.07 104.8 104.8 0 01-.901-2.443 58.31 58.31 0 01-.897-2.732 84.483 84.483 0 01-.827-2.93c-.263 1-.538 1.98-.825 2.937a60.964 60.964 0 01-.894 2.736c-.307.868-.607 1.68-.896 2.445-.29.762-.566 1.447-.828 2.058h-1.643a66.648 66.648 0 01-2.466-6.283c-.744-2.208-1.43-4.644-2.059-7.312h1.814c.193.93.435 1.934.726 3.01.29 1.078.603 2.147.938 3.207.335 1.06.672 2.064 1.015 3.012.342.947.664 1.754.963 2.42.336-.873.672-1.81 1.01-2.81a82.29 82.29 0 00.95-3.026 118.452 118.452 0 001.54-5.812h1.473zM131.721 7.111h5.417v1.447h-5.417v7.231c0 .772.066 1.399.197 1.88.132.482.32.855.566 1.118.245.263.543.438.893.526.351.088.736.131 1.158.131.718 0 1.297-.083 1.735-.249.438-.166.78-.32 1.025-.46l.421 1.42c-.245.158-.675.336-1.288.538-.613.201-1.28.303-1.999.303-.841 0-1.547-.11-2.117-.33a3.047 3.047 0 01-1.366-.998c-.342-.447-.583-1.005-.723-1.67-.141-.667-.211-1.455-.211-2.366V3.115l1.709-.315v4.311z" fill="#343DFF"/><mask id="b" maskUnits="userSpaceOnUse" x="0" y="0" width="151" height="21"><path fill-rule="evenodd" clip-rule="evenodd" d="M0 .302h150.89v20.403H0V.303z" fill="#fff"/></mask><g mask="url(#b)" fill-rule="evenodd" clip-rule="evenodd" fill="#343DFF"><path d="M140.294 20.706V.617l1.708-.316v7.205a10.823 10.823 0 011.709-.486 8.905 8.905 0 011.736-.173c1.052 0 1.928.15 2.629.447.702.3 1.263.724 1.683 1.275.421.553.714 1.215.881 1.987.167.771.25 1.62.25 2.55v7.599h-1.709v-7.047c0-.964-.066-1.778-.197-2.445-.132-.665-.351-1.209-.658-1.63a2.545 2.545 0 00-1.221-.908c-.509-.184-1.15-.275-1.921-.275-.298 0-.617.026-.959.079-.342.051-.663.108-.96.17-.299.062-.566.129-.802.198-.237.07-.39.123-.461.157v11.7h-1.708zM15.796 2.363H-.006L1.537 7.08l14.259-4.717z"/></g><path fill-rule="evenodd" clip-rule="evenodd" d="M18.252 5.219v15.445L13.47 19.09l4.781-13.87zM17.121 3.64l-5.075 14.919-7.575-2.543-2.478-7.4L17.121 3.64zM.026 9.244l.49-.13 2.064 6.253-2.554-.866V9.245zM5.123 17.945l6.44 2.152-.267.567H5.958l-.835-2.72z" fill="#343DFF"/></svg>