<svg width="37" height="37" viewBox="0 0 37 37" fill="none" xmlns="http://www.w3.org/2000/svg">
<path d="M32.7787 0.911621H4.25317C3.25886 0.924378 2.30996 1.32289 1.61312 2.02035C0.916287 2.71781 0.527974 3.65773 0.532759 4.63539V33.0593C0.528014 34.0406 0.919222 34.9836 1.6206 35.6816C2.32198 36.3797 3.27629 36.7758 4.27427 36.7831H32.7998C33.7978 36.7758 34.7521 36.3797 35.4534 35.6816C36.1548 34.9836 36.546 34.0406 36.5413 33.0593V4.63539C36.5436 4.14779 36.4481 3.66452 36.2601 3.21329C36.0722 2.76205 35.7955 2.35171 35.446 2.00579C35.0965 1.65987 34.6809 1.38515 34.2232 1.1974C33.7655 1.00964 33.2746 0.912525 32.7787 0.911621V0.911621ZM18.523 33.6794C14.5509 33.6492 10.7535 32.0701 7.96509 29.289C5.17666 26.5079 3.6253 22.7523 3.65186 18.8474C3.6253 14.9424 5.17666 11.1868 7.96509 8.4057C10.7535 5.6246 14.5509 4.04549 18.523 4.01535C22.4968 4.04276 26.2969 5.62065 29.0876 8.40206C31.8784 11.1835 33.4312 14.9406 33.4046 18.8474C33.4312 22.7541 31.8784 26.5113 29.0876 29.2927C26.2969 32.0741 22.4968 33.652 18.523 33.6794Z" fill="#F6F7FA"/>
</svg>
